<?xml version="1.0" encoding="utf-8"?>
<!-- Generator: Adobe Illustrator 24.0.2, SVG Export Plug-In . SVG Version: 6.00 Build 0)  -->
<svg version="1.1" id="Layer_1" xmlns="http://www.w3.org/2000/svg" xmlns:xlink="http://www.w3.org/1999/xlink" x="0px" y="0px"
	 viewBox="0 0 2544 571.12" style="enable-background:new 0 0 2544 571.12;" xml:space="preserve">
<style type="text/css">
	.st0{fill:#99CC33;}
	.st1{fill:#FEFEFE;}
	.st2{fill:#FEFEFD;}
	.st3{fill:none;}
</style>
<path d="M167.98,176.78v356.63H19.17V33.1h193.89c85.03,0,151.62,19.31,199.76,57.91c57.18,46.18,85.77,108.86,85.77,188.03
	c0,75.75-24.44,137.57-73.3,185.46c-48.87,47.89-111.79,71.84-188.76,71.84c-9.04,0-23.82-0.49-44.35-1.47V387.9h23.82
	c86.74,0,130.12-36.29,130.12-108.86c0-68.17-42.64-102.26-127.92-102.26H167.98z"/>
<path d="M906.89,288.94l155.77,4.03c-10.26,80.63-38.18,142.94-83.75,186.93c-45.58,43.98-105.01,65.97-178.31,65.97
	c-74.53,0-136.9-24.98-187.11-74.95c-50.21-49.97-75.32-111.97-75.32-186.01c0-74.52,25.59-137.2,76.79-188.03
	c51.19-50.82,114.29-76.24,189.31-76.24c73.79,0,135.37,24.92,184.73,74.77c34.21,34.45,58.4,82.47,72.57,144.04l-159.44,10.63
	c-17.84-54.73-51.68-82.1-101.53-82.1c-31.77,0-57.97,11-78.62,32.99c-20.65,21.99-30.97,49.97-30.97,83.93
	c0,32.75,10.14,59.81,30.42,81.18c20.28,21.38,45.94,32.07,76.97,32.07c31.52,0,56.63-9.4,75.32-28.22
	C892.41,351.13,903.47,324.12,906.89,288.94z"/>
<path d="M1370.18,20.64c70.86,0,131.64,25.78,182.35,77.34c50.7,51.56,76.05,113.26,76.05,185.09c0,73.06-25.54,135.13-76.6,186.19
	c-51.07,51.07-113.14,76.6-186.19,76.6c-72.57,0-134.51-25.66-185.83-76.97c-51.31-51.31-76.97-113.26-76.97-185.83
	c0-73.3,25.84-135.37,77.52-186.19C1232.18,46.06,1295.41,20.64,1370.18,20.64z M1365.78,167.98c-30.55,0-56.57,11.24-78.07,33.72
	c-21.5,22.48-32.25,49.61-32.25,81.37c0,31.77,10.81,58.89,32.44,81.37c21.63,22.48,47.58,33.72,77.89,33.72
	c30.79,0,56.87-11.18,78.25-33.54c21.38-22.36,32.07-49.54,32.07-81.55c0-32.01-10.69-59.19-32.07-81.55
	C1422.65,179.16,1396.57,167.98,1365.78,167.98z"/>
<path d="M1847.39,176.78v356.63h-148.81V33.1h193.89c85.03,0,151.62,19.31,199.76,57.91c57.18,46.18,85.77,108.86,85.77,188.03
	c0,75.75-24.44,137.57-73.3,185.46c-48.87,47.89-111.79,71.84-188.76,71.84c-9.04,0-23.82-0.49-44.35-1.47V387.9h23.82
	c86.74,0,130.12-36.29,130.12-108.86c0-68.17-42.64-102.26-127.92-102.26H1847.39z"/>
<path d="M2514.83,227.73v111.42h-97.13c-13.19,0-22.54,1.96-28.04,5.86c-5.5,3.91-8.25,10.51-8.25,19.79
	c0,10.51,2.81,17.41,8.43,20.71c5.62,3.3,17.1,4.95,34.45,4.95h100.06v142.94h-116.92c-54.98,0-97.01-13.13-126.08-39.4
	c-29.08-26.26-43.62-64.2-43.62-113.81V184.11c0-47.89,13.74-85.03,41.23-111.42s66.16-39.58,116-39.58h129.38v143.68h-94.93
	c-25.66,0-38.48,8.31-38.48,24.92c0,9.78,3.05,16.56,9.16,20.34c6.1,3.79,16.98,5.68,32.62,5.68H2514.83z"/>
<g>
	<g>
		<path class="st0" d="M832.85,479.8c-9.83,0.41-19.15,0.22-28.98,0.63"/>
		<path class="st0" d="M799.35,480.63c-33.36-1.98-64.87-10.74-93.31-28.38c-58.01-35.97-91.31-87.97-98.18-156.14
			c-4.41-43.79,4.79-85.03,27.83-122.4c35.81-58.09,88.02-91.24,156.22-97.99c44.04-4.36,85.07,5.61,123.02,28.21
			c10.12,6.03,19.72,12.85,28.49,20.81c2.93,2.67,3.85,4.38,0.63,7.49c-4.4,4.24-8.53,8.8-12.44,13.5c-2.57,3.09-4.33,3.4-7.6,0.59
			c-29.48-25.31-63.62-40.09-102.45-42.08c-60.73-3.12-111.24,18.68-148.72,66.8c-37.13,47.68-46.1,101.56-28.69,159.26
			c11.66,38.63,34.68,69.74,68.65,91.67c58.83,37.99,119.74,39.92,181.78,7.95c14.79-7.62,27.73-17.99,39.32-29.91
			c3.19-3.28,5.24-3.94,8.62-0.36c4.19,4.45,8.83,8.49,13.48,12.46c2.68,2.29,2.77,3.88,0.26,6.51
			c-18.54,19.44-40.23,34.36-64.74,45.2c-17.09,7.56-34.98,12.51-53.47,15.09"/>
	</g>
	<g>
		<path d="M938.27,285.98c0,23.79,0.02,47.59-0.01,71.38c-0.01,13.8-7.38,18.94-20.22,14.06c-29.38-11.17-58.77-22.31-88.09-33.67
			c-5.46-2.12-10.94-1.28-16.44-1.52c-3.01-0.13-3.01,2.66-3.72,4.45c-6.26,15.69-12.38,31.43-18.58,47.14
			c-3.41,8.65-6.38,10.66-15.61,10.71c-6.33,0.03-12.65,0.07-18.98-0.01c-10.11-0.13-14.7-4.65-14.81-15.04
			c-0.16-14.63-0.15-29.25,0.03-43.88c0.04-3.67-0.71-5.9-4.26-7.73c-13.12-6.78-19.6-18.14-20.18-32.93
			c-0.31-7.79-0.14-15.6-0.06-23.4c0.22-23.19,15.38-38.83,38.27-39.09c20.7-0.23,41.4-0.13,62.1,0c5.07,0.03,9.81-0.84,14.55-2.67
			c28.62-11.02,57.29-21.9,85.95-32.82c12.88-4.91,20.04,0.16,20.05,14.23C938.28,238.78,938.27,262.38,938.27,285.98z"/>
		<path class="st1" d="M913.83,285.97c0,17.36-0.1,34.72,0.07,52.08c0.04,3.99-0.6,5.05-4.65,3.47
			c-21.61-8.44-43.28-16.72-65.01-24.83c-3.14-1.17-3.94-2.75-3.91-5.94c0.15-16.38,0.17-32.77-0.01-49.15
			c-0.04-3.29,1-4.78,3.99-5.9c21.54-8.08,43.06-16.21,64.47-24.63c4.83-1.9,5.19-0.31,5.14,4
			C913.71,252.03,913.83,269,913.83,285.97z"/>
		<path class="st0" d="M766.53,261.46c8.15,0,16.3,0,24.45,0c1.81,1.82,1.77,4.2,1.79,6.51c0.08,12.18,0.08,24.36,0,36.53
			c-0.02,2.3,0.06,4.69-1.78,6.5c-8.23,0.62-16.46,0.46-24.69,0.08c-1.19-1.68-1.26-3.64-1.26-5.59
			c-0.03-12.65-0.06-25.29,0.02-37.94C765.07,265.43,765.04,263.24,766.53,261.46z"/>
		<path class="st1" d="M790.99,311c0-16.52-0.01-33.03-0.01-49.55c6.86-0.06,13.73,0.02,20.58-0.26c3.21-0.13,3.73,1.25,3.71,4.09
			c-0.11,13.97-0.1,27.94-0.01,41.9c0.02,2.79-0.47,4.32-3.71,4.19C804.71,311.08,797.85,311.11,790.99,311z"/>
		<path class="st2" d="M766.53,261.46c-0.08,16.54-0.16,33.09-0.23,49.63c-3.44,0.07-6.88,0.33-10.31,0.19
			c-9.3-0.38-13.9-5.09-14.16-14.64c-0.19-6.81-0.16-13.63-0.01-20.44c0.22-10.18,4.96-14.84,14.97-14.93
			C760.04,261.25,763.29,261.4,766.53,261.46z"/>
		<path class="st1" d="M785.08,336.2c-4.76,12.17-9.27,23.7-13.77,35.23c-0.54,1.39-1.3,2.33-2.94,2.19
			c-2.47-0.2-1.8-2.13-1.81-3.51c-0.05-10.13,0.01-20.26-0.05-30.39c-0.02-2.29,0.39-3.65,3.1-3.56
			C774.53,336.31,779.46,336.2,785.08,336.2z"/>
	</g>
	<rect id="_x3C_Slice_x3E_" x="928.78" y="402.56" class="st3" width="3.15" height="1.05"/>
</g>
</svg>
